PathFileType	4	(X/Y/Z)	/Users/itak/Documents/Research/Walk-IL/dataset/trc/00101_00007.trc
DataRate	CameraRate	NumFrames	NumMarkers	Units	OrigDataRate	OrigDataStartFrame	OrigNumFrames
100.000000	100.000000	4	53	mm	100.000000	145	580
Frame#	Time	RPSI			LPSI			L3			STRN			T10			C7			CLAV			RBAK			LBAK			LSHO			LUPA			LAEL			LAOL			LWTS			LWPS			LFRA			LIFD			LHPS			LHTS			RSHO			RUPA			RAEL			RAOL			RWTS			RWPS			RFRA			RIFD			RHTS			RHPS			RBHD			LFHD			RFHD			LBHD			LHIP			RHIP			RASI			LASI			LKNE			LTHI			LANK			LTIP			LTOE			LMT1			LMT5			LHEE			RKNE			RTHI			RANK			RTIP			RTOE			RMT1			RMT5			RHEE			
		X1	Y1	Z1	X2	Y2	Z2	X3	Y3	Z3	X4	Y4	Z4	X5	Y5	Z5	X6	Y6	Z6	X7	Y7	Z7	X8	Y8	Z8	X9	Y9	Z9	X10	Y10	Z10	X11	Y11	Z11	X12	Y12	Z12	X13	Y13	Z13	X14	Y14	Z14	X15	Y15	Z15	X16	Y16	Z16	X17	Y17	Z17	X18	Y18	Z18	X19	Y19	Z19	X20	Y20	Z20	X21	Y21	Z21	X22	Y22	Z22	X23	Y23	Z23	X24	Y24	Z24	X25	Y25	Z25	X26	Y26	Z26	X27	Y27	Z27	X28	Y28	Z28	X29	Y29	Z29	X30	Y30	Z30	X31	Y31	Z31	X32	Y32	Z32	X33	Y33	Z33	X34	Y34	Z34	X35	Y35	Z35	X36	Y36	Z36	X37	Y37	Z37	X38	Y38	Z38	X39	Y39	Z39	X40	Y40	Z40	X41	Y41	Z41	X42	Y42	Z42	X43	Y43	Z43	X44	Y44	Z44	X45	Y45	Z45	X46	Y46	Z46	X47	Y47	Z47	X48	Y48	Z48	X49	Y49	Z49	X50	Y50	Z50	X51	Y51	Z51	X52	Y52	Z52	X53	Y53	Z53	

146	1.45	-1905.798706054688	1120.850463867188	-260.0497131347656	-1903.238891601562	1122.2900390625	-395.5222778320312	-1910.95703125	1157.545654296875	-330.6729736328125	-1690.428588867188	1353.762329101562	-326.8399658203125	-1945.795776367188	1310.435668945312	-333.9762573242188	-1899.905395507812	1600.945678710938	-351.7589416503906	-1722.2958984375	1489.724487304688	-334.2481079101562	-1966.114013671875	1420.070678710938	-263.6159973144531	-1904.699584960938	1580.206176757812	-453.6281433105469	-1815.707153320312	1563.146606445312	-518.4605102539062	-1836.016479492188	1430.91748046875	-587.4861450195312	-1823.958740234375	1210.415649414062	-606.2719116210938	-1892.417236328125	1199.111572265625	-552.3019409179688	-1723.730712890625	954.8696899414062	-557.100830078125	-1805.1005859375	927.9050903320312	-583.4904174804688	-1807.567138671875	1094.677124023438	-607.8199462890625	-1712.931884765625	762.2354125976562	-527.9353637695312	-1774.8662109375	853.0202026367188	-581.5806884765625	-1707.892700195312	864.7730102539062	-564.6439208984375	-1853.270141601562	1583.560424804688	-167.4064483642578	-1874.547119140625	1510.887451171875	-104.2625122070312	-1885.010131835938	1214.372802734375	-81.12126159667969	-1890.404541015625	1213.568481445312	-178.5564422607422	-1730.3056640625	976.8031005859375	-93.30885314941406	-1805.535766601562	956.1591186523438	-65.78380584716797	-1859.926635742188	1141.167114257812	-66.05865478515625	-1698.673706054688	782.8189086914062	-114.3800048828125	-1697.154907226562	868.452392578125	-89.50217437744141	-1767.077758789062	857.9566040039062	-61.6304931640625	-1868.673706054688	1763.31982421875	-271.2593078613281	-1708.89501953125	1841.966064453125	-403.1396484375	-1710.247192382812	1846.615112304688	-273.3737182617188	-1873.399047851562	1761.10986328125	-406.3335266113281	-1806.0185546875	1034.99169921875	-502.9979248046875	-1782.585815429688	1023.715393066406	-137.6218414306641	-1699.671264648438	1097.714233398438	-188.8703765869141	-1701.485229492188	1096.423828125	-457.3548889160156	-1713.790161132812	530.7146606445312	-470.5238037109375	-1752.570678710938	677.5013427734375	-497.3370971679688	-1917.040283203125	48.10821151733398	-492.4893493652344	-1857.395874023438	298.9852600097656	-510.9655456542969	-1692.681030273438	39.78279876708984	-429.0684814453125	-1771.829467773438	44.89332962036133	-398.3365173339844	-1792.593994140625	31.41459274291992	-515.5404663085938	-1987.503173828125	57.92751693725586	-431.8291015625	-1787.004150390625	529.2764892578125	-193.0614471435547	-1761.346435546875	808.0077514648438	-151.3489685058594	-1936.9638671875	27.97948265075684	-217.0823974609375	-1820.541870117188	394.0740966796875	-183.3682250976562	-1705.492431640625	50.00917053222656	-266.8376159667969	-1764.704711914062	36.21633148193359	-309.7241821289062	-1804.208740234375	40.36902236938477	-196.0456695556641	-1993.88671875	30.05683326721191	-265.6006469726562	
147	1.46	-1905.07568359375	1120.739135742188	-258.9817199707031	-1902.597045898438	1122.107666015625	-394.4591369628906	-1910.242065429688	1157.630859375	-329.5520324707031	-1688.666870117188	1353.277954101562	-325.6539001464844	-1944.275024414062	1310.768310546875	-332.56689453125	-1897.130981445312	1601.140258789062	-350.3924255371094	-1719.96826171875	1489.3359375	-333.0975341796875	-1963.946899414062	1420.584350585938	-261.9672546386719	-1902.139404296875	1580.420776367188	-452.2611389160156	-1813.270263671875	1562.932006835938	-517.2063598632812	-1834.12890625	1430.8134765625	-586.1065673828125	-1822.842895507812	1210.301147460938	-604.9851684570312	-1891.288818359375	1199.191284179688	-550.97021484375	-1723.190551757812	954.5133666992188	-555.920166015625	-1804.659545898438	927.7413330078125	-582.2546997070312	-1806.749755859375	1094.513427734375	-606.5697631835938	-1712.743041992188	761.8906860351562	-526.7639770507812	-1774.598266601562	852.800537109375	-580.3848876953125	-1707.575073242188	864.3822631835938	-563.4771728515625	-1850.280883789062	1583.707153320312	-166.1103973388672	-1871.595581054688	1511.132080078125	-102.867790222168	-1882.242919921875	1214.636596679688	-79.15375518798828	-1888.239501953125	1213.69970703125	-176.5101623535156	-1727.645751953125	977.0380859375	-92.02552795410156	-1802.661499023438	956.4412231445312	-63.90509414672852	-1857.0107421875	1141.411499023438	-64.16171264648438	-1696.10595703125	783.0552368164062	-113.0562057495117	-1694.417724609375	868.69189453125	-88.30489349365234	-1764.20263671875	858.23486328125	-59.86412048339844	-1865.657836914062	1762.96044921875	-270.0975341796875	-1706.033569335938	1841.7333984375	-402.1023864746094	-1707.275268554688	1846.377319335938	-272.3482360839844	-1870.466186523438	1760.720092773438	-405.1737060546875	-1805.17919921875	1034.753173828125	-501.8755798339844	-1781.907348632812	1023.514831542969	-136.4766845703125	-1698.934692382812	1097.280395507812	-187.5426483154297	-1700.822509765625	1096.159423828125	-455.9786071777344	-1705.11767578125	531.1488647460938	-468.302734375	-1746.175903320312	677.759521484375	-495.2590026855469	-1916.348876953125	51.32352828979492	-492.1935729980469	-1852.39892578125	301.2947998046875	-509.4261474609375	-1692.501708984375	39.85563659667969	-429.7185668945312	-1771.094482421875	45.35275268554688	-398.5239868164062	-1792.424926757812	31.7167911529541	-515.250732421875	-1986.377197265625	62.46581268310547	-431.2043762207031	-1786.749877929688	529.0609130859375	-192.2576141357422	-1761.053344726562	807.6900634765625	-150.2042388916016	-1936.966552734375	27.9206485748291	-217.0345001220703	-1820.238647460938	393.8062438964844	-182.718994140625	-1705.481201171875	49.40644454956055	-267.0313415527344	-1764.7578125	35.82077026367188	-309.7498474121094	-1804.126708984375	40.10566711425781	-195.9480285644531	-1993.943725585938	30.06082153320312	-265.4844970703125	
148	1.47	-1904.286010742188	1120.6484375	-257.9567565917969	-1901.923583984375	1121.952514648438	-393.4367065429688	-1909.473022460938	1157.743408203125	-328.4720764160156	-1686.84521484375	1352.780639648438	-324.5082092285156	-1942.674926757812	1311.109497070312	-331.1602478027344	-1894.274047851562	1601.332885742188	-349.0281982421875	-1717.560180664062	1488.94921875	-331.9782409667969	-1961.690795898438	1421.1083984375	-260.3248901367188	-1899.513427734375	1580.640869140625	-450.8918151855469	-1810.787353515625	1562.7333984375	-515.9714965820312	-1832.218505859375	1430.719970703125	-584.7372436523438	-1821.733520507812	1210.2041015625	-603.6923828125	-1890.149536132812	1199.296875	-549.60400390625	-1722.656860351562	954.1757202148438	-554.7444458007812	-1804.23046875	927.5960083007812	-580.9935913085938	-1805.952270507812	1094.36376953125	-605.3101806640625	-1712.542846679688	761.5597534179688	-525.580810546875	-1774.348876953125	852.5960083007812	-579.1675415039062	-1707.264526367188	864.0125732421875	-562.3096313476562	-1847.197021484375	1583.846435546875	-164.8293609619141	-1868.548217773438	1511.377197265625	-101.4825439453125	-1879.374877929688	1214.8974609375	-77.16374969482422	-1885.982299804688	1213.827880859375	-174.4383087158203	-1724.888916015625	977.2838134765625	-90.70938110351562	-1799.678955078125	956.7371215820312	-61.97440338134766	-1853.98291015625	1141.662475585938	-62.23606491088867	-1693.4375	783.29541015625	-111.6714859008789	-1691.597412109375	868.932373046875	-87.06881713867188	-1761.224853515625	858.5234375	-58.02994918823242	-1862.54296875	1762.594970703125	-268.9384460449219	-1703.072143554688	1841.485961914062	-401.0651550292969	-1704.199584960938	1846.102294921875	-271.3179016113281	-1867.448852539062	1760.344116210938	-404.0244140625	-1804.337280273438	1034.511108398438	-500.7901000976562	-1781.209228515625	1023.297912597656	-135.4023895263672	-1698.121826171875	1096.838256835938	-186.2708435058594	-1700.14990234375	1095.901611328125	-454.667724609375	-1696.015625	531.8126831054688	-466.0152282714844	-1739.441650390625	678.1746826171875	-493.1761169433594	-1915.464721679688	54.97795104980469	-491.8751220703125	-1846.930908203125	303.9152221679688	-507.8490905761719	-1692.272827148438	39.9845085144043	-430.5433959960938	-1770.179809570312	45.91552734375	-398.7381591796875	-1792.2265625	32.16681289672852	-514.9142456054688	-1984.950805664062	67.55166625976562	-430.5282592773438	-1786.497680664062	528.8434448242188	-191.4839324951172	-1760.71826171875	807.3793334960938	-149.1061553955078	-1936.965209960938	27.86116409301758	-216.9925231933594	-1819.945068359375	393.5296630859375	-182.0860748291016	-1705.495483398438	48.78661346435547	-267.2043762207031	-1764.825073242188	35.38299942016602	-309.7595520019531	-1804.057373046875	39.87541198730469	-195.8437957763672	-1993.992919921875	30.06296157836914	-265.3928527832031	
149	1.48	-1903.413818359375	1120.573486328125	-256.9819030761719	-1901.200927734375	1121.817504882812	-392.4629211425781	-1908.631469726562	1157.873901367188	-327.4404296875	-1684.95166015625	1352.258911132812	-323.4105834960938	-1940.974243164062	1311.44970703125	-329.7730712890625	-1891.332153320312	1601.518798828125	-347.6743774414062	-1715.062866210938	1488.5556640625	-330.8968811035156	-1959.335083007812	1421.628295898438	-258.7024230957031	-1896.8173828125	1580.86083984375	-449.5283203125	-1808.255615234375	1562.548583984375	-514.7615356445312	-1830.280883789062	1430.630493164062	-583.3863525390625	-1820.634521484375	1210.117309570312	-602.402099609375	-1889.003540039062	1199.4228515625	-548.2105712890625	-1722.12353515625	953.8519287109375	-553.5802001953125	-1803.811645507812	927.4623413085938	-579.7107543945312	-1805.179077148438	1094.221435546875	-604.0484008789062	-1712.3193359375	761.23974609375	-524.3863525390625	-1774.11181640625	852.3994140625	-577.9297485351562	-1706.959716796875	863.6640014648438	-561.150146484375	-1844.011352539062	1583.966552734375	-163.5680847167969	-1865.398681640625	1511.6123046875	-100.1135864257812	-1876.421997070312	1215.14599609375	-75.15898895263672	-1883.634643554688	1213.943237304688	-172.3512878417969	-1722.037475585938	977.5316162109375	-89.35353851318359	-1796.596313476562	957.0369262695312	-60.00083541870117	-1850.858642578125	1141.912963867188	-60.28892135620117	-1690.672729492188	783.5289306640625	-110.2140502929688	-1688.694091796875	869.1715087890625	-85.78140258789062	-1758.151611328125	858.8150634765625	-56.1333122253418	-1859.33203125	1762.221801757812	-267.7854919433594	-1700.006225585938	1841.21484375	-400.0289001464844	-1701.025268554688	1845.791870117188	-270.2812194824219	-1864.343383789062	1759.979614257812	-402.8859252929688	-1803.482055664062	1034.260498046875	-499.7547912597656	-1780.48681640625	1023.048034667969	-134.3954620361328	-1697.221069335938	1096.3779296875	-185.0539398193359	-1699.455200195312	1095.641845703125	-453.4237365722656	-1686.561401367188	532.7188110351562	-463.6823120117188	-1732.4091796875	678.7522583007812	-491.1030883789062	-1914.335815429688	59.03346633911133	-491.4987487792969	-1840.991333007812	306.8211669921875	-506.2246398925781	-1691.92919921875	40.20734786987305	-431.5440979003906	-1769.026123046875	46.58899688720703	-398.9715881347656	-1791.97314453125	32.78954696655273	-514.5311889648438	-1983.159790039062	73.115478515625	-429.7626953125	-1786.229614257812	528.62109375	-190.7337036132812	-1760.3115234375	807.0764770507812	-148.0592956542969	-1936.959838867188	27.8005542755127	-216.9546203613281	-1819.676635742188	393.2500610351562	-181.4766845703125	-1705.543701171875	48.15719985961914	-267.3634948730469	-1764.909790039062	34.93374633789062	-309.7590942382812	-1804.001831054688	39.68147277832031	-195.7316436767578	-1994.034057617188	30.06482124328613	-265.3254699707031	
